<svg xmlns="http://www.w3.org/2000/svg" viewBox="0 0 90 62"><title>11111Asset 1</title><g id="Layer_2" data-name="Layer 2"><g id="Icons"><path id="Twitter_alt_" data-name="Twitter (alt)" d="M79.8,27.56c5.06-.41,8.49-2.71,9.81-5.83-1.83,1.12-7.49,2.34-10.61,1.18-.16-.73-.33-1.43-.5-2.06C76.12,12.1,68,5.06,59.42,5.91c.69-.28,1.39-.54,2.09-.77C62.45,4.8,68,3.9,67.1,2c-.73-1.71-7.47,1.3-8.74,1.69C60,3,62.81,1.93,63.1,0a13.42,13.42,0,0,0-7,3.33A4.85,4.85,0,0,0,57.42.66C50.57,5,46.57,13.85,43.33,22.41a33.74,33.74,0,0,0-6.81-5.48A177.85,177.85,0,0,0,13.43,6.77c-.33,3.52,1.74,8.2,7.7,11.31a18.64,18.64,0,0,0-5.54.67c.76,4,3.28,7.35,10.07,9-3.1.21-4.71.91-6.16,2.44,1.41,2.8,4.86,6.1,11.08,5.43-6.91,3-2.82,8.49,2.8,7.66A23.86,23.86,0,0,1,0,44.13C22.66,75,71.92,62.4,79.26,32.65c5.5.05,8.74-1.9,10.74-4A22,22,0,0,1,79.8,27.56Z"/></g></g></svg>